<svg xmlns="http://www.w3.org/2000/svg" width="1024" height="1024" viewBox="0 0 1024 1024">
<rect width="100%" height="100%" fill="#121416"/>
<path d="M 647.10 461.66 A 50.38 50.38 0 0 1 695.46 513.98 M 695.46 513.98 A 50.38 50.38 0 0 1 647.10 562.34" fill="none" stroke="#DCD8D0" stroke-width="3.01" stroke-linecap="butt"/>
<path d="M 643.14 562.34 A 50.38 50.38 0 0 1 594.78 510.02 M 594.78 510.02 A 50.38 50.38 0 0 1 643.14 461.66" fill="none" stroke="#DCD8D0" stroke-width="3.01" stroke-linecap="butt"/>
<path d="M 661.32 412.55 A 100.76 100.76 0 0 1 722.02 446.90" fill="none" stroke="#DCD8D0" stroke-width="3.01" stroke-linecap="butt"/>
<path d="M 726.90 453.13 A 100.76 100.76 0 0 1 745.54 520.34" fill="none" stroke="#DCD8D0" stroke-width="3.01" stroke-linecap="butt"/>
<path d="M 744.57 528.20 A 100.76 100.76 0 0 1 710.22 588.90" fill="none" stroke="#DCD8D0" stroke-width="3.01" stroke-linecap="butt"/>
<path d="M 703.99 593.78 A 100.76 100.76 0 0 1 636.78 612.42" fill="none" stroke="#DCD8D0" stroke-width="3.01" stroke-linecap="butt"/>
<path d="M 628.92 611.45 A 100.76 100.76 0 0 1 568.22 577.10" fill="none" stroke="#DCD8D0" stroke-width="3.01" stroke-linecap="butt"/>
<path d="M 563.34 570.87 A 100.76 100.76 0 0 1 544.70 503.66" fill="none" stroke="#DCD8D0" stroke-width="3.01" stroke-linecap="butt"/>
<path d="M 545.67 495.80 A 100.76 100.76 0 0 1 580.02 435.10" fill="none" stroke="#DCD8D0" stroke-width="3.01" stroke-linecap="butt"/>
<path d="M 586.25 430.22 A 100.76 100.76 0 0 1 653.46 411.58" fill="none" stroke="#DCD8D0" stroke-width="3.01" stroke-linecap="butt"/>
<path d="M 690.57 367.85 A 151.14 151.14 0 0 1 721.83 381.77" fill="none" stroke="#DCD8D0" stroke-width="3.01" stroke-linecap="butt"/>
<path d="M 737.13 392.09 A 151.14 151.14 0 0 1 761.75 415.86" fill="none" stroke="#DCD8D0" stroke-width="3.01" stroke-linecap="butt"/>
<path d="M 772.59 430.79 A 151.14 151.14 0 0 1 787.59 461.55" fill="none" stroke="#DCD8D0" stroke-width="3.01" stroke-linecap="butt"/>
<path d="M 792.68 479.29 A 151.14 151.14 0 0 1 796.26 513.32" fill="none" stroke="#DCD8D0" stroke-width="3.01" stroke-linecap="butt"/>
<path d="M 794.97 531.73 A 151.14 151.14 0 0 1 786.69 564.93" fill="none" stroke="#DCD8D0" stroke-width="3.01" stroke-linecap="butt"/>
<path d="M 779.18 581.79 A 151.14 151.14 0 0 1 760.05 610.16" fill="none" stroke="#DCD8D0" stroke-width="3.01" stroke-linecap="butt"/>
<path d="M 747.23 623.43 A 151.14 151.14 0 0 1 719.55 643.55" fill="none" stroke="#DCD8D0" stroke-width="3.01" stroke-linecap="butt"/>
<path d="M 702.96 651.64 A 151.14 151.14 0 0 1 670.07 661.07" fill="none" stroke="#DCD8D0" stroke-width="3.01" stroke-linecap="butt"/>
<path d="M 651.71 663.00 A 151.14 151.14 0 0 1 617.58 660.61" fill="none" stroke="#DCD8D0" stroke-width="3.01" stroke-linecap="butt"/>
<path d="M 599.67 656.15 A 151.14 151.14 0 0 1 568.41 642.23" fill="none" stroke="#DCD8D0" stroke-width="3.01" stroke-linecap="butt"/>
<path d="M 553.11 631.91 A 151.14 151.14 0 0 1 528.49 608.14" fill="none" stroke="#DCD8D0" stroke-width="3.01" stroke-linecap="butt"/>
<path d="M 517.65 593.21 A 151.14 151.14 0 0 1 502.65 562.45" fill="none" stroke="#DCD8D0" stroke-width="3.01" stroke-linecap="butt"/>
<path d="M 497.56 544.71 A 151.14 151.14 0 0 1 493.98 510.68" fill="none" stroke="#DCD8D0" stroke-width="3.01" stroke-linecap="butt"/>
<path d="M 495.27 492.27 A 151.14 151.14 0 0 1 503.55 459.07" fill="none" stroke="#DCD8D0" stroke-width="3.01" stroke-linecap="butt"/>
<path d="M 511.06 442.21 A 151.14 151.14 0 0 1 530.19 413.84" fill="none" stroke="#DCD8D0" stroke-width="3.01" stroke-linecap="butt"/>
<path d="M 543.01 400.57 A 151.14 151.14 0 0 1 570.69 380.45" fill="none" stroke="#DCD8D0" stroke-width="3.01" stroke-linecap="butt"/>
<path d="M 587.28 372.36 A 151.14 151.14 0 0 1 620.17 362.93" fill="none" stroke="#DCD8D0" stroke-width="3.01" stroke-linecap="butt"/>
<path d="M 638.53 361.00 A 151.14 151.14 0 0 1 672.66 363.39" fill="none" stroke="#DCD8D0" stroke-width="3.01" stroke-linecap="butt"/>
<path d="M 722.48 325.92 A 201.52 201.52 0 0 1 747.93 338.67" fill="none" stroke="#DCD8D0" stroke-width="3.01" stroke-linecap="butt"/>
<path d="M 757.30 344.59 A 201.52 201.52 0 0 1 779.77 362.06" fill="none" stroke="#DCD8D0" stroke-width="3.01" stroke-linecap="butt"/>
<path d="M 787.80 369.69 A 201.52 201.52 0 0 1 806.43 391.21" fill="none" stroke="#DCD8D0" stroke-width="3.01" stroke-linecap="butt"/>
<path d="M 812.83 400.26 A 201.52 201.52 0 0 1 826.90 425.00" fill="none" stroke="#DCD8D0" stroke-width="3.01" stroke-linecap="butt"/>
<path d="M 831.40 435.12 A 201.52 201.52 0 0 1 840.38 462.14" fill="none" stroke="#DCD8D0" stroke-width="3.01" stroke-linecap="butt"/>
<path d="M 842.82 472.94 A 201.52 201.52 0 0 1 846.35 501.19" fill="none" stroke="#DCD8D0" stroke-width="3.01" stroke-linecap="butt"/>
<path d="M 846.64 512.26 A 201.52 201.52 0 0 1 844.60 540.66" fill="none" stroke="#DCD8D0" stroke-width="3.01" stroke-linecap="butt"/>
<path d="M 842.72 551.57 A 201.52 201.52 0 0 1 835.17 579.02" fill="none" stroke="#DCD8D0" stroke-width="3.01" stroke-linecap="butt"/>
<path d="M 831.20 589.36 A 201.52 201.52 0 0 1 818.45 614.81" fill="none" stroke="#DCD8D0" stroke-width="3.01" stroke-linecap="butt"/>
<path d="M 812.53 624.18 A 201.52 201.52 0 0 1 795.06 646.65" fill="none" stroke="#DCD8D0" stroke-width="3.01" stroke-linecap="butt"/>
<path d="M 787.43 654.68 A 201.52 201.52 0 0 1 765.91 673.31" fill="none" stroke="#DCD8D0" stroke-width="3.01" stroke-linecap="butt"/>
<path d="M 756.86 679.71 A 201.52 201.52 0 0 1 732.12 693.78" fill="none" stroke="#DCD8D0" stroke-width="3.01" stroke-linecap="butt"/>
<path d="M 722.00 698.28 A 201.52 201.52 0 0 1 694.98 707.26" fill="none" stroke="#DCD8D0" stroke-width="3.01" stroke-linecap="butt"/>
<path d="M 684.18 709.70 A 201.52 201.52 0 0 1 655.93 713.23" fill="none" stroke="#DCD8D0" stroke-width="3.01" stroke-linecap="butt"/>
<path d="M 644.86 713.52 A 201.52 201.52 0 0 1 616.46 711.48" fill="none" stroke="#DCD8D0" stroke-width="3.01" stroke-linecap="butt"/>
<path d="M 605.55 709.60 A 201.52 201.52 0 0 1 578.10 702.05" fill="none" stroke="#DCD8D0" stroke-width="3.01" stroke-linecap="butt"/>
<path d="M 567.76 698.08 A 201.52 201.52 0 0 1 542.31 685.33" fill="none" stroke="#DCD8D0" stroke-width="3.01" stroke-linecap="butt"/>
<path d="M 532.94 679.41 A 201.52 201.52 0 0 1 510.47 661.94" fill="none" stroke="#DCD8D0" stroke-width="3.01" stroke-linecap="butt"/>
<path d="M 502.44 654.31 A 201.52 201.52 0 0 1 483.81 632.79" fill="none" stroke="#DCD8D0" stroke-width="3.01" stroke-linecap="butt"/>
<path d="M 477.41 623.74 A 201.52 201.52 0 0 1 463.34 599.00" fill="none" stroke="#DCD8D0" stroke-width="3.01" stroke-linecap="butt"/>
<path d="M 458.84 588.88 A 201.52 201.52 0 0 1 449.86 561.86" fill="none" stroke="#DCD8D0" stroke-width="3.01" stroke-linecap="butt"/>
<path d="M 447.42 551.06 A 201.52 201.52 0 0 1 443.89 522.81" fill="none" stroke="#DCD8D0" stroke-width="3.01" stroke-linecap="butt"/>
<path d="M 443.60 511.74 A 201.52 201.52 0 0 1 445.64 483.34" fill="none" stroke="#DCD8D0" stroke-width="3.01" stroke-linecap="butt"/>
<path d="M 447.52 472.43 A 201.52 201.52 0 0 1 455.07 444.98" fill="none" stroke="#DCD8D0" stroke-width="3.01" stroke-linecap="butt"/>
<path d="M 459.04 434.64 A 201.52 201.52 0 0 1 471.79 409.19" fill="none" stroke="#DCD8D0" stroke-width="3.01" stroke-linecap="butt"/>
<path d="M 477.71 399.82 A 201.52 201.52 0 0 1 495.18 377.35" fill="none" stroke="#DCD8D0" stroke-width="3.01" stroke-linecap="butt"/>
<path d="M 502.81 369.32 A 201.52 201.52 0 0 1 524.33 350.69" fill="none" stroke="#DCD8D0" stroke-width="3.01" stroke-linecap="butt"/>
<path d="M 533.38 344.29 A 201.52 201.52 0 0 1 558.12 330.22" fill="none" stroke="#DCD8D0" stroke-width="3.01" stroke-linecap="butt"/>
<path d="M 568.24 325.72 A 201.52 201.52 0 0 1 595.26 316.74" fill="none" stroke="#DCD8D0" stroke-width="3.01" stroke-linecap="butt"/>
<path d="M 606.06 314.30 A 201.52 201.52 0 0 1 634.31 310.77" fill="none" stroke="#DCD8D0" stroke-width="3.01" stroke-linecap="butt"/>
<path d="M 645.38 310.48 A 201.52 201.52 0 0 1 673.78 312.52" fill="none" stroke="#DCD8D0" stroke-width="3.01" stroke-linecap="butt"/>
<path d="M 684.69 314.40 A 201.52 201.52 0 0 1 712.14 321.95" fill="none" stroke="#DCD8D0" stroke-width="3.01" stroke-linecap="butt"/>
<path d="M 774.86 296.08 A 251.90 251.90 0 0 1 814.14 325.22" fill="none" stroke="#DCD8D0" stroke-width="3.01" stroke-linecap="butt"/>
<path d="M 832.74 343.91 A 251.90 251.90 0 0 1 861.69 383.34" fill="none" stroke="#DCD8D0" stroke-width="3.01" stroke-linecap="butt"/>
<path d="M 873.95 406.68 A 251.90 251.90 0 0 1 889.99 452.89" fill="none" stroke="#DCD8D0" stroke-width="3.01" stroke-linecap="butt"/>
<path d="M 894.83 478.81 A 251.90 251.90 0 0 1 896.53 527.69" fill="none" stroke="#DCD8D0" stroke-width="3.01" stroke-linecap="butt"/>
<path d="M 893.52 553.89 A 251.90 251.90 0 0 1 880.74 601.10" fill="none" stroke="#DCD8D0" stroke-width="3.01" stroke-linecap="butt"/>
<path d="M 870.14 625.24 A 251.90 251.90 0 0 1 844.01 666.59" fill="none" stroke="#DCD8D0" stroke-width="3.01" stroke-linecap="butt"/>
<path d="M 826.76 686.53 A 251.90 251.90 0 0 1 789.61 718.35" fill="none" stroke="#DCD8D0" stroke-width="3.01" stroke-linecap="butt"/>
<path d="M 767.25 732.32 A 251.90 251.90 0 0 1 722.37 751.77" fill="none" stroke="#DCD8D0" stroke-width="3.01" stroke-linecap="butt"/>
<path d="M 696.88 758.53 A 251.90 251.90 0 0 1 648.26 763.88" fill="none" stroke="#DCD8D0" stroke-width="3.01" stroke-linecap="butt"/>
<path d="M 621.91 762.83 A 251.90 251.90 0 0 1 573.88 753.62" fill="none" stroke="#DCD8D0" stroke-width="3.01" stroke-linecap="butt"/>
<path d="M 549.01 744.85 A 251.90 251.90 0 0 1 505.82 721.89" fill="none" stroke="#DCD8D0" stroke-width="3.01" stroke-linecap="butt"/>
<path d="M 484.65 706.18 A 251.90 251.90 0 0 1 450.15 671.50" fill="none" stroke="#DCD8D0" stroke-width="3.01" stroke-linecap="butt"/>
<path d="M 434.54 650.25 A 251.90 251.90 0 0 1 411.79 606.95" fill="none" stroke="#DCD8D0" stroke-width="3.01" stroke-linecap="butt"/>
<path d="M 403.15 582.04 A 251.90 251.90 0 0 1 394.17 533.95" fill="none" stroke="#DCD8D0" stroke-width="3.01" stroke-linecap="butt"/>
<path d="M 393.25 507.60 A 251.90 251.90 0 0 1 398.85 459.01" fill="none" stroke="#DCD8D0" stroke-width="3.01" stroke-linecap="butt"/>
<path d="M 405.74 433.56 A 251.90 251.90 0 0 1 425.41 388.78" fill="none" stroke="#DCD8D0" stroke-width="3.01" stroke-linecap="butt"/>
<path d="M 439.50 366.49 A 251.90 251.90 0 0 1 471.49 329.49" fill="none" stroke="#DCD8D0" stroke-width="3.01" stroke-linecap="butt"/>
<path d="M 491.52 312.34 A 251.90 251.90 0 0 1 533.00 286.42" fill="none" stroke="#DCD8D0" stroke-width="3.01" stroke-linecap="butt"/>
<path d="M 557.20 275.94 A 251.90 251.90 0 0 1 604.47 263.40" fill="none" stroke="#DCD8D0" stroke-width="3.01" stroke-linecap="butt"/>
<path d="M 630.68 260.51 A 251.90 251.90 0 0 1 679.56 262.46" fill="none" stroke="#DCD8D0" stroke-width="3.01" stroke-linecap="butt"/>
<path d="M 705.45 267.43 A 251.90 251.90 0 0 1 751.58 283.70" fill="none" stroke="#DCD8D0" stroke-width="3.01" stroke-linecap="butt"/>
<path d="M 828.09 271.38 A 302.28 302.28 0 0 1 933.81 422.36" fill="none" stroke="#DCD8D0" stroke-width="3.01" stroke-linecap="butt"/>
<path d="M 939.95 445.29 A 302.28 302.28 0 0 1 923.89 628.90" fill="none" stroke="#DCD8D0" stroke-width="3.01" stroke-linecap="butt"/>
<path d="M 913.86 650.41 A 302.28 302.28 0 0 1 783.53 780.74" fill="none" stroke="#DCD8D0" stroke-width="3.01" stroke-linecap="butt"/>
<path d="M 762.02 790.77 A 302.28 302.28 0 0 1 578.41 806.83" fill="none" stroke="#DCD8D0" stroke-width="3.01" stroke-linecap="butt"/>
<path d="M 555.48 800.69 A 302.28 302.28 0 0 1 404.50 694.97" fill="none" stroke="#DCD8D0" stroke-width="3.01" stroke-linecap="butt"/>
<path d="M 390.89 675.53 A 302.28 302.28 0 0 1 343.18 497.50" fill="none" stroke="#DCD8D0" stroke-width="3.01" stroke-linecap="butt"/>
<path d="M 345.25 473.85 A 302.28 302.28 0 0 1 423.15 306.81" fill="none" stroke="#DCD8D0" stroke-width="3.01" stroke-linecap="butt"/>
<path d="M 439.93 290.03 A 302.28 302.28 0 0 1 606.97 212.13" fill="none" stroke="#DCD8D0" stroke-width="3.01" stroke-linecap="butt"/>
<path d="M 630.62 210.06 A 302.28 302.28 0 0 1 808.65 257.77" fill="none" stroke="#DCD8D0" stroke-width="3.01" stroke-linecap="butt"/>
<path d="M 891.21 259.38 A 352.67 352.67 0 0 1 897.74 758.09 M 897.74 758.09 A 352.67 352.67 0 0 1 419.61 783.14" fill="none" stroke="#DCD8D0" stroke-width="3.01" stroke-linecap="butt"/>
<path d="M 399.03 764.62 A 352.67 352.67 0 0 1 392.50 265.91 M 392.50 265.91 A 352.67 352.67 0 0 1 870.63 240.86" fill="none" stroke="#DCD8D0" stroke-width="3.01" stroke-linecap="butt"/>
<circle cx="645.1200000000001" cy="512.0" r="26.45" fill="#D49437"/>
<circle cx="246.37" cy="512.00" r="13.22" fill="#DCD8D0"/>
<circle cx="220.77" cy="512.00" r="8.60" fill="#DCD8D0" fill-opacity="0.45"/>
<circle cx="203.37" cy="512.00" r="5.95" fill="#DCD8D0" fill-opacity="0.28"/>
<circle cx="190.05" cy="512.00" r="3.97" fill="#DCD8D0" fill-opacity="0.15"/>
</svg>